<svg xmlns="http://www.w3.org/2000/svg" width="1000" height="560" viewBox="0 0 1000 560">
<rect width="100%" height="100%" fill="#f8fafc"/><text x="48" y="48" font-family="Arial,sans-serif" font-size="25" font-weight="700" fill="#0f172a">Blue/red side win rate</text>
<text x="48" y="76" font-family="Arial,sans-serif" font-size="13" fill="#475569">Side performance by team; n shown above every bar</text><line x1="70" y1="470" x2="965" y2="470" stroke="#94a3b8"/><line x1="70" y1="115" x2="70" y2="470" stroke="#94a3b8"/><rect x="77.2" y="259.0" width="30.4" height="211.0" rx="4" fill="#2563eb"/><text x="92.4" y="252.0" text-anchor="middle" font-family="Arial" font-size="11" fill="#0f172a">n=64 · 47%</text><text x="92.4" y="492" text-anchor="end" transform="rotate(-42 92.4,492)" font-family="Arial" font-size="11" fill="#334155">2800 · blue</text><rect x="121.9" y="275.8" width="30.4" height="194.2" rx="4" fill="#dc2626"/><text x="137.1" y="268.8" text-anchor="middle" font-family="Arial" font-size="11" fill="#0f172a">n=51 · 43%</text><text x="137.1" y="492" text-anchor="end" transform="rotate(-42 137.1,492)" font-family="Arial" font-size="11" fill="#334155">2800 · red</text><rect x="166.7" y="265.4" width="30.4" height="204.6" rx="4" fill="#2563eb"/><text x="181.9" y="258.4" text-anchor="middle" font-family="Arial" font-size="11" fill="#0f172a">n=55 · 45%</text><text x="181.9" y="492" text-anchor="end" transform="rotate(-42 181.9,492)" font-family="Arial" font-size="11" fill="#334155">2801 · blue</text><rect x="211.4" y="317.7" width="30.4" height="152.3" rx="4" fill="#dc2626"/><text x="226.6" y="310.7" text-anchor="middle" font-family="Arial" font-size="11" fill="#0f172a">n=65 · 34%</text><text x="226.6" y="492" text-anchor="end" transform="rotate(-42 226.6,492)" font-family="Arial" font-size="11" fill="#334155">2801 · red</text><rect x="256.2" y="187.9" width="30.4" height="282.1" rx="4" fill="#2563eb"/><text x="271.4" y="180.9" text-anchor="middle" font-family="Arial" font-size="11" fill="#0f172a">n=75 · 63%</text><text x="271.4" y="492" text-anchor="end" transform="rotate(-42 271.4,492)" font-family="Arial" font-size="11" fill="#334155">2802 · blue</text><rect x="300.9" y="270.8" width="30.4" height="199.2" rx="4" fill="#dc2626"/><text x="316.1" y="263.8" text-anchor="middle" font-family="Arial" font-size="11" fill="#0f172a">n=61 · 44%</text><text x="316.1" y="492" text-anchor="end" transform="rotate(-42 316.1,492)" font-family="Arial" font-size="11" fill="#334155">2802 · red</text><rect x="345.7" y="275.0" width="30.4" height="195.0" rx="4" fill="#2563eb"/><text x="360.9" y="268.0" text-anchor="middle" font-family="Arial" font-size="11" fill="#0f172a">n=60 · 43%</text><text x="360.9" y="492" text-anchor="end" transform="rotate(-42 360.9,492)" font-family="Arial" font-size="11" fill="#334155">2803 · blue</text><rect x="390.4" y="305.5" width="30.4" height="164.5" rx="4" fill="#dc2626"/><text x="405.6" y="298.5" text-anchor="middle" font-family="Arial" font-size="11" fill="#0f172a">n=52 · 37%</text><text x="405.6" y="492" text-anchor="end" transform="rotate(-42 405.6,492)" font-family="Arial" font-size="11" fill="#334155">2803 · red</text><rect x="435.2" y="115.0" width="30.4" height="355.0" rx="4" fill="#2563eb"/><text x="450.4" y="111.0" text-anchor="middle" font-family="Arial" font-size="11" fill="#0f172a">n=71 · 79%</text><text x="450.4" y="492" text-anchor="end" transform="rotate(-42 450.4,492)" font-family="Arial" font-size="11" fill="#334155">2804 · blue</text><rect x="479.9" y="219.0" width="30.4" height="251.0" rx="4" fill="#dc2626"/><text x="495.1" y="212.0" text-anchor="middle" font-family="Arial" font-size="11" fill="#0f172a">n=52 · 56%</text><text x="495.1" y="492" text-anchor="end" transform="rotate(-42 495.1,492)" font-family="Arial" font-size="11" fill="#334155">2804 · red</text><rect x="524.7" y="160.1" width="30.4" height="309.9" rx="4" fill="#2563eb"/><text x="539.9" y="153.1" text-anchor="middle" font-family="Arial" font-size="11" fill="#0f172a">n=61 · 69%</text><text x="539.9" y="492" text-anchor="end" transform="rotate(-42 539.9,492)" font-family="Arial" font-size="11" fill="#334155">2805 · blue</text><rect x="569.4" y="204.9" width="30.4" height="265.1" rx="4" fill="#dc2626"/><text x="584.6" y="197.9" text-anchor="middle" font-family="Arial" font-size="11" fill="#0f172a">n=73 · 59%</text><text x="584.6" y="492" text-anchor="end" transform="rotate(-42 584.6,492)" font-family="Arial" font-size="11" fill="#334155">2805 · red</text><rect x="614.2" y="207.4" width="30.4" height="262.6" rx="4" fill="#2563eb"/><text x="629.4" y="200.4" text-anchor="middle" font-family="Arial" font-size="11" fill="#0f172a">n=48 · 58%</text><text x="629.4" y="492" text-anchor="end" transform="rotate(-42 629.4,492)" font-family="Arial" font-size="11" fill="#334155">2806 · blue</text><rect x="658.9" y="317.0" width="30.4" height="153.0" rx="4" fill="#dc2626"/><text x="674.1" y="310.0" text-anchor="middle" font-family="Arial" font-size="11" fill="#0f172a">n=50 · 34%</text><text x="674.1" y="492" text-anchor="end" transform="rotate(-42 674.1,492)" font-family="Arial" font-size="11" fill="#334155">2806 · red</text><rect x="703.7" y="250.4" width="30.4" height="219.6" rx="4" fill="#2563eb"/><text x="718.9" y="243.4" text-anchor="middle" font-family="Arial" font-size="11" fill="#0f172a">n=41 · 49%</text><text x="718.9" y="492" text-anchor="end" transform="rotate(-42 718.9,492)" font-family="Arial" font-size="11" fill="#334155">2807 · blue</text><rect x="748.4" y="305.0" width="30.4" height="165.0" rx="4" fill="#dc2626"/><text x="763.6" y="298.0" text-anchor="middle" font-family="Arial" font-size="11" fill="#0f172a">n=60 · 37%</text><text x="763.6" y="492" text-anchor="end" transform="rotate(-42 763.6,492)" font-family="Arial" font-size="11" fill="#334155">2807 · red</text><rect x="793.2" y="260.7" width="30.4" height="209.3" rx="4" fill="#2563eb"/><text x="808.4" y="253.7" text-anchor="middle" font-family="Arial" font-size="11" fill="#0f172a">n=43 · 47%</text><text x="808.4" y="492" text-anchor="end" transform="rotate(-42 808.4,492)" font-family="Arial" font-size="11" fill="#334155">2808 · blue</text><rect x="837.9" y="312.1" width="30.4" height="157.9" rx="4" fill="#dc2626"/><text x="853.1" y="305.1" text-anchor="middle" font-family="Arial" font-size="11" fill="#0f172a">n=57 · 35%</text><text x="853.1" y="492" text-anchor="end" transform="rotate(-42 853.1,492)" font-family="Arial" font-size="11" fill="#334155">2808 · red</text><rect x="882.7" y="173.7" width="30.4" height="296.3" rx="4" fill="#2563eb"/><text x="897.9" y="166.7" text-anchor="middle" font-family="Arial" font-size="11" fill="#0f172a">n=79 · 66%</text><text x="897.9" y="492" text-anchor="end" transform="rotate(-42 897.9,492)" font-family="Arial" font-size="11" fill="#334155">2809 · blue</text><rect x="927.4" y="198.6" width="30.4" height="271.4" rx="4" fill="#dc2626"/><text x="942.6" y="191.6" text-anchor="middle" font-family="Arial" font-size="11" fill="#0f172a">n=68 · 60%</text><text x="942.6" y="492" text-anchor="end" transform="rotate(-42 942.6,492)" font-family="Arial" font-size="11" fill="#334155">2809 · red</text>
<text x="48" y="540" font-family="Arial,sans-serif" font-size="11" fill="#64748b">Source: Gol.gg · Season S16 · cutoff 2026-01-01 onward · descriptive sample</text></svg>